<?xml version="1.0" encoding="UTF-8"?>
<svg version="1.1" xmlns="http://www.w3.org/2000/svg" width="600" height="600">
<path d="M0 0 C198 0 396 0 600 0 C600 198 600 396 600 600 C402 600 204 600 0 600 C0 402 0 204 0 0 Z " fill="#FEFEFE" transform="translate(0,0)"/>
<path d="M0 0 C0.76747559 0.20898926 1.53495117 0.41797852 2.32568359 0.63330078 C24.71184606 6.94758916 42.2823036 19.11208707 59 35 C59.64582031 35.58136719 60.29164063 36.16273438 60.95703125 36.76171875 C71.38490341 46.45695352 78.18683754 59.19382903 84 72 C84.39832031 72.87011719 84.79664063 73.74023438 85.20703125 74.63671875 C96.50859654 101.15712496 97 128.34499246 97 157 C17.47 157 -62.06 157 -144 157 C-142.20506329 196.48860762 -135.2608616 235.10680416 -104.80859375 263.0078125 C-85.17124768 279.50706538 -62.01894467 287.67664919 -36.375 287.4375 C-35.67889618 287.43445862 -34.98279236 287.43141724 -34.26559448 287.42828369 C-22.49469208 287.35256926 -11.33280138 286.31876555 0 283 C0.74233887 282.78569336 1.48467773 282.57138672 2.24951172 282.35058594 C26.1099644 275.22512148 45.11741033 260.93552827 57.1875 239 C60.97097808 231.85589183 63.60484664 224.25437875 66.1237793 216.58789062 C68.24439056 210.32011848 70.35192425 205.48182931 76.00390625 201.63671875 C81.2731807 199.955913 87.72026996 200.59207199 93 202 C92.25783969 217.33797978 86.95637901 231.47717354 80 245 C79.52820313 245.96292969 79.05640625 246.92585937 78.5703125 247.91796875 C64.20787078 276.03427415 38.13450523 293.86257896 8.7578125 303.52734375 C-22.82654815 313.5175461 -59.77033239 311.67740004 -90 298 C-90.65758301 297.70754395 -91.31516602 297.41508789 -91.99267578 297.11376953 C-119.96089502 284.48360789 -140.58761775 262.97764234 -153 235 C-153.30389648 234.33758301 -153.60779297 233.67516602 -153.92089844 232.99267578 C-161.65924742 215.90967166 -164.89202589 197.21479447 -167.55932617 178.75317383 C-167.93813713 176.10487357 -167.93813713 176.10487357 -168.52783203 173.97216797 C-172.97977961 155.37711493 -168.21814644 134.04790381 -164.5 115.8125 C-164.19260391 114.26449203 -164.19260391 114.26449203 -163.8789978 112.68521118 C-158.01914667 83.57389171 -146.59026409 58.73044158 -126 37 C-125.16726562 36.1028125 -124.33453125 35.205625 -123.4765625 34.28125 C-91.96404904 1.3825556 -43.91934701 -12.05357473 0 0 Z " fill="#050505" transform="translate(199,147)"/>
<path d="M0 0 C0.64179199 0.21430664 1.28358398 0.42861328 1.94482422 0.64941406 C29.45195824 10.07690275 48.52327455 29.54732003 61.6875 54.9375 C66.52950711 64.94064651 69.96825091 74.91505903 72.3125 85.75 C72.57003052 86.87269287 72.57003052 86.87269287 72.83276367 88.01806641 C74.60702796 96.89401558 74 104.50856055 74 114 C2.72 114 -68.56 114 -142 114 C-140.31313594 78.57585472 -130.6000928 48.58781892 -104.8125 23.5078125 C-91.98034802 12.06581031 -76.62441597 3.4866416 -60 -1 C-58.98035156 -1.29777344 -57.96070313 -1.59554687 -56.91015625 -1.90234375 C-38.72614649 -6.42230952 -17.77698907 -5.96891604 0 0 Z " fill="#FEFEFE" transform="translate(198,169)"/>
<path d="M0 0 C7.66628615 0.16802282 13.13665528 1.55764921 19.17138672 6.50415039 C19.80689453 7.02235352 20.44240234 7.54055664 21.09716797 8.07446289 C25.75066247 12.34618512 29.25921617 17.57344978 32.88867188 22.70776367 C35.52464037 26.39932366 38.2283305 30.041654 40.92138672 33.69165039 C41.52668213 34.51310547 42.13197754 35.33456055 42.75561523 36.1809082 C46.53682926 41.30692227 50.34235101 46.41378527 54.17138672 51.50415039 C60.90441856 60.45533344 67.53690406 69.47981755 74.17138672 78.50415039 C76.60803992 81.81727428 79.04553777 85.12977432 81.48388672 88.44165039 C82.07121582 89.23958008 82.65854492 90.03750977 83.26367188 90.85961914 C86.45951034 95.19676384 89.67618794 99.51633426 92.92138672 103.81665039 C97.79682809 110.28969403 102.48658605 116.89261542 107.17138672 123.50415039 C111.55852024 119.40189567 114.98001523 114.86933175 118.48388672 110.00415039 C123.61256723 102.9620381 128.81392026 95.98463217 134.10888672 89.06665039 C139.33141637 82.23820388 144.52315794 75.38880417 149.67138672 68.50415039 C155.4807351 60.7353907 161.35230564 53.016296 167.24584961 45.3112793 C171.76917506 39.38309472 176.20616114 33.39724725 180.60888672 27.37915039 C182.78900972 24.41529926 184.97580052 21.45656471 187.17138672 18.50415039 C187.61063477 17.91327637 188.04988281 17.32240234 188.50244141 16.71362305 C193.88537088 9.55428388 199.47340273 3.40347839 208.17138672 0.50415039 C211.01509123 0.40746444 213.82845942 0.36491202 216.67138672 0.37915039 C217.44353516 0.3752832 218.21568359 0.37141602 219.01123047 0.36743164 C222.31642409 0.37315988 225.0151617 0.45207538 228.17138672 1.50415039 C227.28868954 5.96213192 224.779134 8.72252566 221.92138672 12.12915039 C217.33494773 17.72046782 212.9871883 23.42333566 208.79638672 29.31665039 C203.19715334 37.17113055 197.34137059 44.79327086 191.39013672 52.38305664 C187.96189116 56.75747395 184.62899204 61.19609316 181.30810547 65.65258789 C177.72604098 70.43303958 174.07006679 75.15650856 170.41992188 79.88500977 C168.41596416 82.4838067 166.41958944 85.08842721 164.42138672 87.69165039 C160.35870256 92.97859362 156.26733909 98.24295596 152.17138672 103.50415039 C150.38971921 105.794317 148.6083087 108.084683 146.82714844 110.37524414 C145.77974639 111.72194804 144.73194589 113.06834222 143.68359375 114.41430664 C131.59831735 128.12258523 131.59831735 128.12258523 126.76904297 144.80249023 C127.47981889 149.57521254 130.18185268 152.65933053 133.17138672 156.31665039 C133.79859619 157.12432861 134.42580566 157.93200684 135.07202148 158.76416016 C136.40705271 160.48142913 137.75180124 162.19118162 139.10546875 163.89379883 C141.82548259 167.33062085 144.47091696 170.82134087 147.11767578 174.31469727 C149.1219447 176.95887745 151.13597187 179.59538025 153.15185547 182.23071289 C160.07777545 191.30096878 166.89858331 200.45064123 173.73144531 209.59106445 C175.18991228 211.54177003 176.64908391 213.4919443 178.10888672 215.44165039 C178.58374512 216.07586914 179.05860352 216.71008789 179.54785156 217.36352539 C183.68131222 222.8729771 187.86368001 228.34454534 192.04638672 233.81665039 C197.78865887 241.3294962 203.43099904 248.90737858 209.01367188 256.53930664 C213.05434614 262.04208973 217.20739382 267.4457405 221.42138672 272.81665039 C236.33296008 291.82729712 236.33296008 291.82729712 239.17138672 297.50415039 C229.56304072 300.40478315 221.35713123 300.36835931 211.87451172 296.96508789 C204.72719282 293.10223056 200.18157467 287.27683233 195.54638672 280.75415039 C194.9444751 279.92214111 194.34256348 279.09013184 193.72241211 278.23291016 C192.47489868 276.5065499 191.23117453 274.77744521 189.99121094 273.0456543 C188.27928772 270.65484122 186.55774058 268.2713886 184.83154297 265.89086914 C182.14082459 262.17824596 179.45902801 258.45929878 176.78027344 254.73803711 C174.08126544 250.99055255 171.37599788 247.24759194 168.67138672 243.50415039 C167.58802368 242.00417185 166.50469034 240.50417185 165.42138672 239.00415039 C164.61701172 237.89040039 164.61701172 237.89040039 163.79638672 236.75415039 C145.92138672 212.00415039 145.92138672 212.00415039 144.29663086 209.75439453 C143.21260256 208.2534949 142.1284553 206.75268117 141.04418945 205.25195312 C138.34551017 201.51641072 135.6488736 197.77942785 132.95654297 194.03930664 C130.27459673 190.31415563 127.58248251 186.59648356 124.88769531 182.88061523 C123.03124026 180.31009839 121.18954302 177.72930514 119.34716797 175.14868164 C118.0806689 173.39186259 116.81375193 171.63534471 115.54638672 169.87915039 C114.95414307 169.04262939 114.36189941 168.2061084 113.75170898 167.34423828 C112.91917603 166.19749634 112.91917603 166.19749634 112.06982422 165.02758789 C111.58175293 164.34615723 111.09368164 163.66472656 110.59082031 162.96264648 C110.12240723 162.48134277 109.65399414 162.00003906 109.17138672 161.50415039 C108.18138672 161.50415039 107.19138672 161.50415039 106.17138672 161.50415039 C104.49377982 163.3099749 104.49377982 163.3099749 102.85888672 165.81665039 C102.15376953 166.8234082 101.44865234 167.83016602 100.72216797 168.86743164 C100.3220752 169.44187012 99.92198242 170.01630859 99.50976562 170.6081543 C96.91520046 174.2837094 94.22239869 177.88771873 91.54638672 181.50415039 C90.32737814 183.15630339 89.1086324 184.80865034 87.89013672 186.46118164 C87.27525391 187.29472168 86.66037109 188.12826172 86.02685547 188.98706055 C84.20861228 191.45365098 82.39271335 193.92194788 80.57763672 196.39086914 C74.65799549 204.4404061 68.71188087 212.46780391 62.70556641 220.45288086 C57.06829586 227.95621819 51.51267393 235.5194558 45.95361328 243.08081055 C44.191529 245.47676241 42.42790012 247.87156758 40.66357422 250.26586914 C40.08679932 251.04865234 39.51002441 251.83143555 38.91577148 252.63793945 C37.75540167 254.21194984 36.5944341 255.78551973 35.43286133 257.35864258 C32.43735115 261.41759036 29.45567589 265.48567512 26.49560547 269.57055664 C6.37142941 297.28192039 6.37142941 297.28192039 -5.82861328 299.50415039 C-7.99299355 299.62166094 -10.16108099 299.67922188 -12.32861328 299.69165039 C-13.45267578 299.70583008 -14.57673828 299.72000977 -15.73486328 299.73461914 C-18.69837384 299.51385257 -20.33535479 299.05021509 -22.82861328 297.50415039 C-21.49419957 294.67665075 -19.99091977 292.20804471 -18.13330078 289.69555664 C-17.5902832 288.95909912 -17.04726563 288.2226416 -16.48779297 287.46386719 C-15.89901367 286.67278564 -15.31023437 285.8817041 -14.70361328 285.06665039 C-14.08905273 284.23625244 -13.47449219 283.40585449 -12.84130859 282.55029297 C-7.46953756 275.31433644 -1.99770349 268.15603658 3.48168945 261.00146484 C7.60420912 255.60461148 11.61658038 250.15056806 15.52490234 244.59741211 C19.23661255 239.34944914 23.15032823 234.2651305 27.07226562 229.17333984 C31.79993557 223.02267849 36.40924167 216.79013649 40.99926758 210.53637695 C47.4063318 201.81011457 53.91184124 193.15893693 60.42529297 184.51196289 C63.80165474 180.02258315 67.16173015 175.52308779 70.48779297 170.99633789 C71.07955322 170.19115723 71.67131348 169.38597656 72.28100586 168.55639648 C73.49397977 166.90421164 74.70542102 165.25090041 75.9152832 163.59643555 C78.65866852 159.85739734 81.42224256 156.15050915 84.32763672 152.53540039 C84.80080322 151.94299561 85.27396973 151.35059082 85.76147461 150.74023438 C87.02160341 149.17506262 88.29712072 147.62231524 89.57373047 146.07055664 C91.34193032 143.72608265 91.34193032 143.72608265 91.19091797 141.51196289 C89.74297275 138.66045393 87.91076707 136.3226279 85.92138672 133.81665039 C85.0093978 132.65691118 84.0979679 131.49673222 83.18701172 130.33618164 C82.45514648 129.40926514 82.45514648 129.40926514 81.70849609 128.46362305 C78.99453253 125.00392299 76.33665445 121.50140589 73.67138672 118.00415039 C68.18683602 110.82552381 62.68341497 103.66169441 57.17138672 96.50415039 C55.5044338 94.33770388 53.83791258 92.17092542 52.17138672 90.00415039 C51.33806125 88.92081101 50.50472792 87.83747767 49.67138672 86.75415039 C38.00472005 71.58748372 26.33805339 56.42081706 14.67138672 41.25415039 C14.25904785 40.71814209 13.84670898 40.18213379 13.421875 39.62988281 C12.58678826 38.54420483 11.75182774 37.45842975 10.91699219 36.37255859 C8.8614931 33.69928874 6.80350557 31.02803412 4.74169922 28.35961914 C-1.86576156 19.80373679 -8.35853261 11.16427555 -14.82861328 2.50415039 C-11.10550694 -1.21895595 -5.02474106 0.00721336 0 0 Z " fill="#030303" transform="translate(330.82861328125,150.495849609375)"/>
</svg>
